<?xml version="1.0" encoding="utf-8"?>
<!-- Generator: Adobe Illustrator 24.2.0, SVG Export Plug-In . SVG Version: 6.00 Build 0)  -->
<svg version="1.1" id="Layer_1" xmlns="http://www.w3.org/2000/svg" xmlns:xlink="http://www.w3.org/1999/xlink" x="0px" y="0px"
	 viewBox="0 0 388 87.8" style="enable-background:new 0 0 388 87.8;" xml:space="preserve">
<style type="text/css">
	.st0{fill:#FFFFFF;}
	.st1{fill:#0000FF;stroke:#000000;stroke-width:7;stroke-miterlimit:10;}
</style>
<g id="vjeu8t_1_">
</g>
<g id="vjeu8t_3_">
</g>
<text transform="matrix(1 0 0 1 -232.3241 897.7368)" style="font-family:'FONTSPRINGDEMO-IntegralCFDemiBoldItalic'; font-size:234px;">PHILIP </text>
<text transform="matrix(1 0 0 1 -274.124 1035.7368)" style="font-family:'FONTSPRINGDEMO-IntegralCFDemiBoldItalic'; font-size:155px;">CREAMER</text>
<g>
	<g>
		<path class="st0" d="M36.4,1600.4v-25.2h20.1c0.9,0,1.8,0.2,2.5,0.7s1.4,1.1,1.9,1.8c0.5,0.8,0.7,1.6,0.7,2.5v6.7
			c0,0.9-0.2,1.7-0.7,2.5s-1.1,1.4-1.9,1.8s-1.6,0.7-2.5,0.7H41.4v8.4L36.4,1600.4L36.4,1600.4z M41.7,1586.9h14.6
			c0,0,0.1,0,0.1-0.1l0.1-0.1v-6.2c0,0,0-0.1-0.1-0.1l-0.1-0.1H41.7c0,0-0.1,0-0.1,0.1s-0.1,0.1-0.1,0.1v6.2c0,0,0,0.1,0.1,0.1
			S41.6,1586.9,41.7,1586.9z"/>
		<path class="st0" d="M76.1,1600.4c-0.9,0-1.8-0.2-2.5-0.7s-1.4-1.1-1.8-1.8c-0.5-0.8-0.7-1.6-0.7-2.5v-15.1c0-0.9,0.2-1.8,0.7-2.5
			c0.5-0.8,1.1-1.4,1.8-1.8s1.6-0.7,2.5-0.7h15.1c0.9,0,1.7,0.2,2.5,0.7s1.4,1.1,1.8,1.8c0.5,0.8,0.7,1.6,0.7,2.5v15.1
			c0,0.9-0.2,1.8-0.7,2.5c-0.5,0.8-1.1,1.4-1.8,1.8c-0.8,0.5-1.6,0.7-2.5,0.7H76.1z M76.3,1595.3h14.6c0,0,0.1,0,0.1-0.1l0.1-0.1
			v-14.6c0,0,0-0.1-0.1-0.1l-0.1-0.1H76.3c0,0-0.1,0-0.1,0.1l-0.1,0.1v14.6c0,0,0,0.1,0.1,0.1C76.2,1595.3,76.2,1595.3,76.3,1595.3z
			"/>
		<path class="st0" d="M107.1,1600.4v-25.2h20.1c0.9,0,1.8,0.2,2.5,0.7s1.4,1.1,1.9,1.8c0.5,0.8,0.7,1.6,0.7,2.5v6.7
			c0,0.9-0.2,1.7-0.7,2.5s-1.1,1.4-1.9,1.8s-1.6,0.7-2.5,0.7h-15.1v8.4L107.1,1600.4L107.1,1600.4z M112.3,1586.9h14.6
			c0,0,0.1,0,0.1-0.1l0.1-0.1v-6.2c0,0,0-0.1-0.1-0.1l-0.1-0.1h-14.6c0,0-0.1,0-0.1,0.1s-0.1,0.1-0.1,0.1v6.2c0,0,0,0.1,0.1,0.1
			S112.3,1586.9,112.3,1586.9z M126.9,1600.4l-7.5-8.9h6.6l6.2,7.3v1.6H126.9z"/>
		<path class="st0" d="M151.8,1600.4v-20.1h-10.1v-5.1h25.2v5.1h-10v20.1H151.8z"/>
		<path class="st0" d="M176.6,1600.4v-25.2h23.2v5.1h-18.1v5h14.6v5.1h-14.6v10H176.6z"/>
		<path class="st0" d="M213.8,1600.4c-0.9,0-1.8-0.2-2.5-0.7s-1.4-1.1-1.8-1.8c-0.5-0.8-0.7-1.6-0.7-2.5v-15.1
			c0-0.9,0.2-1.8,0.7-2.5c0.5-0.8,1.1-1.4,1.8-1.8s1.6-0.7,2.5-0.7h15.1c0.9,0,1.7,0.2,2.5,0.7s1.4,1.1,1.8,1.8
			c0.5,0.8,0.7,1.6,0.7,2.5v15.1c0,0.9-0.2,1.8-0.7,2.5c-0.5,0.8-1.1,1.4-1.8,1.8c-0.8,0.5-1.6,0.7-2.5,0.7H213.8z M214,1595.3h14.6
			c0,0,0.1,0,0.1-0.1l0.1-0.1v-14.6c0,0,0-0.1-0.1-0.1l-0.1-0.1H214c0,0-0.1,0-0.1,0.1l-0.1,0.1v14.6c0,0,0,0.1,0.1,0.1
			C213.9,1595.3,214,1595.3,214,1595.3z"/>
		<path class="st0" d="M244.8,1600.4v-25.2h5v20.2H270v5.1L244.8,1600.4L244.8,1600.4z"/>
		<path class="st0" d="M278.4,1600.4v-25.2h5v25.2H278.4z"/>
		<path class="st0" d="M298.5,1600.4c-0.9,0-1.8-0.2-2.5-0.7c-0.8-0.5-1.4-1.1-1.8-1.8c-0.5-0.8-0.7-1.6-0.7-2.5v-15.1
			c0-0.9,0.2-1.8,0.7-2.5c0.5-0.8,1.1-1.4,1.8-1.8c0.8-0.5,1.6-0.7,2.5-0.7h15.1c0.9,0,1.7,0.2,2.5,0.7s1.4,1.1,1.8,1.8
			c0.5,0.8,0.7,1.6,0.7,2.5v15.1c0,0.9-0.2,1.8-0.7,2.5c-0.5,0.8-1.1,1.4-1.8,1.8c-0.8,0.5-1.6,0.7-2.5,0.7H298.5z M298.7,1595.3
			h14.6c0,0,0.1,0,0.1-0.1l0.1-0.1v-14.6c0,0,0-0.1-0.1-0.1l-0.1-0.1h-14.6c0,0-0.1,0-0.1,0.1s-0.1,0.1-0.1,0.1v14.6
			C298.5,1595.1,298.5,1595.2,298.7,1595.3C298.7,1595.2,298.7,1595.3,298.7,1595.3z"/>
		<path class="st0" d="M347.6,1600.4v-25.2h5v20.2h20.2v5.1L347.6,1600.4L347.6,1600.4z"/>
		<path class="st0" d="M386.8,1600.4c-0.9,0-1.8-0.2-2.5-0.7c-0.8-0.5-1.4-1.1-1.8-1.8c-0.5-0.8-0.7-1.6-0.7-2.5v-15.1
			c0-0.9,0.2-1.8,0.7-2.5c0.5-0.8,1.1-1.4,1.8-1.8c0.8-0.5,1.6-0.7,2.5-0.7h15.1c0.9,0,1.7,0.2,2.5,0.7s1.4,1.1,1.8,1.8
			c0.5,0.8,0.7,1.6,0.7,2.5v15.1c0,0.9-0.2,1.8-0.7,2.5c-0.5,0.8-1.1,1.4-1.8,1.8c-0.8,0.5-1.6,0.7-2.5,0.7H386.8z M387,1595.3h14.6
			c0,0,0.1,0,0.1-0.1l0.1-0.1v-14.6c0,0,0-0.1-0.1-0.1l-0.1-0.1H387c0,0-0.1,0-0.1,0.1s-0.1,0.1-0.1,0.1v14.6
			C386.8,1595.1,386.8,1595.2,387,1595.3C387,1595.2,387,1595.3,387,1595.3z"/>
		<path class="st0" d="M422.8,1600.4c-0.9,0-1.8-0.2-2.5-0.7c-0.8-0.5-1.4-1.1-1.8-1.8c-0.5-0.8-0.7-1.6-0.7-2.5v-15.1
			c0-0.9,0.2-1.8,0.7-2.5c0.5-0.8,1.1-1.4,1.8-1.8c0.8-0.5,1.6-0.7,2.5-0.7h15.1c0.9,0,1.8,0.2,2.5,0.7c0.8,0.5,1.4,1.1,1.9,1.8
			c0.5,0.8,0.7,1.6,0.7,2.5v2.2h-5.1v-1.9c0,0,0-0.1-0.1-0.1l-0.1-0.1h-14.6c0,0-0.1,0-0.1,0.1l-0.1,0.1v14.6c0,0,0,0.1,0.1,0.1
			l0.1,0.1h14.6c0,0,0.1,0,0.1-0.1l0.1-0.1v-4.1h-5.6v-5.1H443v9.5c0,0.9-0.2,1.8-0.7,2.5c-0.5,0.8-1.1,1.4-1.9,1.8
			c-0.8,0.5-1.6,0.7-2.5,0.7L422.8,1600.4L422.8,1600.4z"/>
		<path class="st0" d="M453.2,1600.4v-25.2h5v25.2H453.2z"/>
		<path class="st0" d="M468.3,1600.4v-25.2h5.4l14.7,17.6v-17.6h5.1v25.2h-5.4l-14.8-17.6v17.6H468.3z"/>
	</g>
</g>
<g>
	<g>
		<path class="st0" d="M36.6,1559.7v-26.9h21.5c1,0,1.9,0.2,2.7,0.7c0.8,0.5,1.5,1.1,2,2c0.5,0.8,0.7,1.7,0.7,2.7v7.1
			c0,1-0.2,1.9-0.7,2.7c-0.5,0.8-1.2,1.5-2,1.9c-0.8,0.5-1.7,0.7-2.7,0.7H42v9h-5.4V1559.7z M42.2,1545.2h15.7c0,0,0.1,0,0.1-0.1
			l0.1-0.1v-6.6c0,0,0-0.1-0.1-0.2c-0.1,0-0.1-0.1-0.1-0.1H42.3c-0.1,0-0.1,0-0.1,0.1c-0.1,0.1-0.1,0.1-0.1,0.2v6.6
			C42.1,1545.1,42.1,1545.1,42.2,1545.2C42.1,1545.2,42.2,1545.2,42.2,1545.2z"/>
		<path class="st0" d="M73.7,1559.7v-26.9h5.4v10.7h16.7v-10.7h5.4v26.9h-5.4V1549H79.1v10.7H73.7z"/>
		<path class="st0" d="M112.3,1559.7v-26.9h5.3v26.9H112.3z"/>
		<path class="st0" d="M128.5,1559.7v-27h5.4v21.5h21.5v5.4L128.5,1559.7L128.5,1559.7z"/>
		<path class="st0" d="M164.4,1559.7v-26.9h5.3v26.9H164.4z"/>
		<path class="st0" d="M180.6,1559.7v-26.9h21.5c1,0,1.9,0.2,2.7,0.7c0.8,0.5,1.5,1.1,2,2c0.5,0.8,0.7,1.7,0.7,2.7v7.1
			c0,1-0.2,1.9-0.7,2.7c-0.5,0.8-1.2,1.5-2,1.9c-0.8,0.5-1.7,0.7-2.7,0.7H186v9h-5.4V1559.7z M186.2,1545.2h15.6c0,0,0.1,0,0.1-0.1
			l0.1-0.1v-6.6c0,0,0-0.1-0.1-0.2c-0.1,0-0.1-0.1-0.1-0.1h-15.6c-0.1,0-0.1,0-0.1,0.1c-0.1,0.1-0.1,0.1-0.1,0.2v6.6
			c0,0.1,0,0.1,0.1,0.1C186.1,1545.2,186.1,1545.2,186.2,1545.2z"/>
		<path class="st0" d="M242.3,1559.7c-1,0-1.9-0.2-2.7-0.7s-1.5-1.1-1.9-1.9s-0.7-1.7-0.7-2.7v-16.2c0-1,0.2-1.9,0.7-2.7
			c0.5-0.8,1.1-1.5,1.9-1.9c0.8-0.5,1.7-0.7,2.7-0.7h21.5v5.4h-20.2c-0.4,0-0.7,0.1-0.9,0.3c-0.2,0.2-0.3,0.5-0.3,1v13.5
			c0,0.4,0.1,0.7,0.3,0.9c0.2,0.2,0.5,0.3,0.9,0.3h20.2v5.4L242.3,1559.7L242.3,1559.7z"/>
		<path class="st0" d="M275.1,1559.7v-26.9h21.5c1,0,1.9,0.2,2.7,0.7s1.5,1.1,2,2c0.5,0.8,0.7,1.7,0.7,2.7v7.1c0,1-0.2,1.9-0.7,2.7
			c-0.5,0.8-1.2,1.5-2,1.9c-0.8,0.5-1.7,0.7-2.7,0.7h-16.1v9h-5.4V1559.7z M280.7,1545.2h15.6c0,0,0.1,0,0.1-0.1l0.1-0.1v-6.6
			c0,0,0-0.1-0.1-0.2c-0.1,0-0.1-0.1-0.1-0.1h-15.6c0,0-0.1,0-0.1,0.1s-0.1,0.1-0.1,0.2v6.6C280.5,1545.1,280.5,1545.1,280.7,1545.2
			C280.6,1545.2,280.7,1545.2,280.7,1545.2z M296.3,1559.7l-8-9.5h7.1l6.6,7.8v1.7H296.3z"/>
		<path class="st0" d="M313.5,1559.7v-26.9h24.8v5.4h-19.4v5.3h15.6v5.5h-15.6v5.3h19.4v5.4L313.5,1559.7L313.5,1559.7z"/>
		<path class="st0" d="M349.7,1538.2c0-1,0.2-1.9,0.7-2.7c0.5-0.8,1.1-1.5,2-2c0.8-0.5,1.7-0.7,2.7-0.7h16.1c1,0,1.9,0.2,2.7,0.7
			s1.5,1.1,2,2c0.5,0.8,0.7,1.7,0.7,2.7v21.5h-5.5v-8.9H355v8.9h-5.4L349.7,1538.2L349.7,1538.2z M371.1,1545.5v-7
			c0,0,0-0.1-0.1-0.2l-0.1-0.1h-15.6c-0.1,0-0.1,0-0.1,0.1c-0.1,0.1-0.1,0.1-0.1,0.2v7H371.1z"/>
		<path class="st0" d="M388.3,1559.7v-26.9h5.7l9.4,11.3l9.4-11.3h5.8v26.9h-5.4v-18.9l-9.7,11.6l-9.8-11.6v18.8L388.3,1559.7
			L388.3,1559.7z"/>
		<path class="st0" d="M430.6,1559.7v-26.9h24.8v5.4H436v5.3h15.6v5.5H436v5.3h19.4v5.4L430.6,1559.7L430.6,1559.7z"/>
		<path class="st0" d="M466.7,1559.7v-26.9h21.5c1,0,1.9,0.2,2.7,0.7s1.5,1.1,2,2c0.5,0.8,0.7,1.7,0.7,2.7v7.1c0,1-0.2,1.9-0.7,2.7
			c-0.5,0.8-1.2,1.5-2,1.9c-0.8,0.5-1.7,0.7-2.7,0.7h-16.1v9h-5.4V1559.7z M472.3,1545.2h15.6c0,0,0.1,0,0.1-0.1l0.1-0.1v-6.6
			c0,0,0-0.1-0.1-0.2c-0.1,0-0.1-0.1-0.1-0.1h-15.6c0,0-0.1,0-0.1,0.1s-0.1,0.1-0.1,0.2v6.6C472.1,1545.1,472.1,1545.1,472.3,1545.2
			C472.2,1545.2,472.2,1545.2,472.3,1545.2z M487.8,1559.7l-8-9.5h7.1l6.6,7.8v1.7H487.8z"/>
	</g>
</g>
<text transform="matrix(1 0 0 1 12.3715 238.3936)" class="st0" style="font-family:''-Mono-Bold'; font-size:40.9451px;">PHILIPCREAMER</text>
<text transform="matrix(1 0 0 1 9.0502 295.3251)" class="st0" style="font-family:''-Mono-Bold'; font-size:66.5px;">SORENSEN</text>
<g>
	<path class="st0" d="M112,10.2c2.6,0,4.8,0.4,6.6,1.3c1.9,0.9,3.3,2.1,4.4,3.7c1.1,1.6,1.7,3.4,1.8,5.5c0.1,2.1-0.3,4.3-1.3,6.7
		l-5.1,13.3c-1.5,3.6-3.9,7.1-7.4,10.5c-1.8,1.8-3.7,3.2-5.6,4.2c-1.9,1-3.9,1.8-6,2.4c-2.1,0.6-4.2,0.9-6.4,1.1
		c-2.2,0.2-4.4,0.2-6.8,0.2h-3.9l-7.7,18.6H54.4l27-67.4H112z M101.6,29.8c0.5-1.1,0.5-2,0-2.8c-0.5-0.8-1.2-1.2-2.3-1.2h-3.6
		l-6.6,16.1h3.7c1.1,0,2.2-0.4,3.3-1.2c1.1-0.8,1.8-1.7,2.3-2.8L101.6,29.8z"/>
	<path class="st0" d="M189.9,10.2l-27.4,67.4h-19.6l9.5-23.5H139l-9.5,23.5h-19.6l27.4-67.4h19.6l-10.3,25.3H160l10.3-25.3H189.9z"
		/>
	<path class="st0" d="M188.4,77.6h-19.6l27.4-67.4h19.6L188.4,77.6z"/>
	<path class="st0" d="M239.6,62l-6.3,15.6h-39.8l27.4-67.4h19.6l-21,51.8H239.6z"/>
	<path class="st0" d="M258.4,77.6h-19.6l27.4-67.4h19.6L258.4,77.6z"/>
	<path class="st0" d="M320.7,10.2c2.6,0,4.8,0.4,6.6,1.3s3.3,2.1,4.4,3.7c1.1,1.6,1.7,3.4,1.8,5.5c0.1,2.1-0.3,4.3-1.3,6.7
		l-5.1,13.3c-1.5,3.6-3.9,7.1-7.4,10.5c-1.8,1.8-3.7,3.2-5.6,4.2c-1.9,1-3.9,1.8-6,2.4c-2.1,0.6-4.2,0.9-6.4,1.1
		c-2.2,0.2-4.4,0.2-6.8,0.2H291l-7.7,18.6h-20.2l27-67.4H320.7z M310.3,29.8c0.5-1.1,0.5-2,0-2.8c-0.5-0.8-1.2-1.2-2.3-1.2h-3.6
		l-6.6,16.1h3.7c1.1,0,2.2-0.4,3.3-1.2c1.1-0.8,1.8-1.7,2.3-2.8L310.3,29.8z"/>
</g>
<g>
	<path class="st0" d="M-24.2,366.5h14.7l5.6,5.7v6.3l-5.6,5.7h-9.1V395l-0.2,0.2h-5.3l-0.2-0.2v-28.3L-24.2,366.5z M-18.6,372v6.8
		h6.6l2.2-2.6v-1.7L-12,372H-18.6z"/>
	<path class="st0" d="M7.1,366.5h5.3l0.2,0.2V378h8.9v-11.3l0.3-0.2h5.3l0.3,0.2V395l-0.3,0.2h-5.3l-0.3-0.2v-11.5h-8.9V395
		l-0.2,0.2H7.1L6.9,395v-28.3L7.1,366.5z"/>
	<path class="st0" d="M39.3,366.4h12l0.2,0.2v5.1l-0.2,0.2h-3.2v17.9h3.2l0.2,0.2v5l-0.2,0.2h-12l-0.2-0.2v-5l0.2-0.2h3v-17.9h-3
		l-0.2-0.2v-5.1L39.3,366.4z"/>
	<path class="st0" d="M63.8,366.5h5.4l0.3,0.2v23.1h12.7l0.3,0.3v4.9l-0.3,0.2H63.8l-0.2-0.2v-28.3L63.8,366.5z"/>
	<path class="st0" d="M94.7,366.4h12l0.2,0.2v5.1l-0.2,0.2h-3.2v17.9h3.2l0.2,0.2v5l-0.2,0.2h-12l-0.2-0.2v-5l0.2-0.2h3v-17.9h-3
		l-0.2-0.2v-5.1L94.7,366.4z"/>
	<path class="st0" d="M119.3,366.5h14.7l5.6,5.7v6.3l-5.6,5.7h-9.1V395l-0.2,0.2h-5.3L119,395v-28.3L119.3,366.5z M124.8,372v6.8
		h6.6l2.2-2.6v-1.7l-2.2-2.5H124.8z"/>
	<path class="st0" d="M156.5,366.5h8l6.3,6.3v1.7l-0.3,0.2h-5.8l-2.6-2.3H159l-2.9,2.7v11.5l2.9,2.7h3.2l2.6-2.5h5.8l0.3,0.2v1.8
		l-6.3,6.2h-8l-6.2-6.2v-16.2L156.5,366.5z"/>
	<path class="st0" d="M182.3,366.5h14.6l5.7,5.7v6.3l-5.6,5.5c3.6,7.2,5.4,10.9,5.4,11.1h-6.2c-0.2,0-2-3.7-5.5-11h-2.9V395
		l-0.2,0.2h-5.3L182,395v-28.2L182.3,366.5z M187.8,372.1v6.8h6.7l2.2-2.6v-1.7l-2.2-2.5H187.8z"/>
	<path class="st0" d="M213.7,366.4h18.1l0.2,0.2v5.1l-0.2,0.2h-12.5v6h10.4l0.2,0.2v4.9l-0.2,0.3h-10.4v6.4h12.5l0.2,0.2v5l-0.2,0.2
		h-18.1l-0.2-0.2v-28.4L213.7,366.4z"/>
	<path class="st0" d="M251.8,366.5h3.7c0.3,0,3.1,5.6,8.4,16.7V395l-0.3,0.2h-5.3l-0.3-0.2v-5.6h-8.9v5.6l-0.2,0.2h-5.3l-0.2-0.2
		v-11.8C248.7,372.1,251.5,366.5,251.8,366.5z M253.6,374.3l-4.3,9.7h8.7v-0.1l-4.3-9.5H253.6z"/>
	<path class="st0" d="M275.5,366.5h3.8l8.3,9.9l8.3-9.9h3.7l0.3,0.2V395l-0.3,0.2h-5.3l-0.3-0.2v-17.3l-6.5,7.5h-0.1
		c-4.1-4.8-6.2-7.3-6.2-7.5h-0.1V395l-0.3,0.2h-5.3l-0.2-0.2v-28.3L275.5,366.5z"/>
	<path class="st0" d="M311.9,366.4H330l0.2,0.2v5.1l-0.2,0.2h-12.5v6h10.4l0.2,0.2v4.9l-0.2,0.3h-10.4v6.4H330l0.2,0.2v5l-0.2,0.2
		h-18.1l-0.2-0.2v-28.4L311.9,366.4z"/>
	<path class="st0" d="M341.6,366.5h14.6l5.7,5.7v6.3l-5.6,5.5c3.6,7.2,5.4,10.9,5.4,11.1h-6.2c-0.2,0-2-3.7-5.5-11h-2.9V395
		l-0.2,0.2h-5.3l-0.2-0.2v-28.2L341.6,366.5z M347.2,372.1v6.8h6.7l2.2-2.6v-1.7l-2.2-2.5H347.2z"/>
</g>
<g>
	<path class="st0" d="M-17,407.6h15.1l9,9.2v3.8L6.7,421h-8.6l-4-3.8H-13l-3.6,3.4v2.1l3.6,3.6h11.1l9,9v9.8l-9,9H-17l-9-9v-4
		l0.4-0.4h8.6l4,4h7.1l3.6-3.6v-1.9l-3.6-3.6H-17l-9-9.2v-9.6L-17,407.6z"/>
	<path class="st0" d="M35.1,407.5h13.2l10.1,10.3v26.3l-10.1,10.1H35.1L25,444.1v-26.3L35.1,407.5z M34.5,421.6v18.7l4.7,4.5h5.3
		l4.6-4.5v-18.7l-4.6-4.5h-5.3L34.5,421.6z"/>
	<path class="st0" d="M76.3,407.6H100l9.2,9.2v10.3l-9,9c5.9,11.7,8.8,17.7,8.8,18.1H99c-0.3,0-3.3-5.9-9-17.8h-4.7v17.4l-0.4,0.4
		h-8.6l-0.4-0.4V408L76.3,407.6z M85.3,416.5v11h10.9l3.6-4.2v-2.7l-3.6-4.1H85.3z"/>
	<path class="st0" d="M127.4,407.3h29.5l0.4,0.4v8.2l-0.4,0.4h-20.3v9.8h17l0.4,0.4v8l-0.4,0.5h-17v10.4h20.3l0.4,0.4v8l-0.4,0.4
		h-29.5l-0.4-0.4v-46.1L127.4,407.3z"/>
	<path class="st0" d="M176,407.4h6.1l17.3,25.5v-25.1l0.4-0.4h8.8l0.5,0.4v46l-0.5,0.4h-6.3l-17.2-25.3v24.9l-0.5,0.4H176l-0.4-0.4
		v-46L176,407.4z"/>
	<path class="st0" d="M236.1,407.6h15.1l9,9.2v3.8l-0.4,0.4h-8.6l-4-3.8h-7.1l-3.6,3.4v2.1l3.6,3.6h11.1l9,9v9.8l-9,9h-15.1l-9-9v-4
		l0.4-0.4h8.6l4,4h7.1l3.6-3.6v-1.9l-3.6-3.6h-11.1l-9-9.2v-9.6L236.1,407.6z"/>
	<path class="st0" d="M278.3,407.3h29.5l0.4,0.4v8.2l-0.4,0.4h-20.3v9.8h17l0.4,0.4v8l-0.4,0.5h-17v10.4h20.3l0.4,0.4v8l-0.4,0.4
		h-29.5l-0.4-0.4v-46.1L278.3,407.3z"/>
	<path class="st0" d="M327,407.4h6.1l17.3,25.5v-25.1l0.4-0.4h8.8l0.5,0.4v46l-0.5,0.4h-6.3l-17.2-25.3v24.9l-0.5,0.4H327l-0.4-0.4
		v-46L327,407.4z"/>
</g>
<rect x="36.9" y="407.5" transform="matrix(-0.441 -0.8975 0.8975 -0.441 -326.6853 658.3896)" class="st0" width="9.5" height="46.8"/>
<rect x="-15.5" y="-199.9" class="st1" width="222" height="111.7"/>
<g>
	<path class="st0" d="M41.6-165.8c1.7,0,3.2,0.3,4.4,0.9c1.2,0.6,2.2,1.4,2.9,2.4c0.7,1,1.1,2.2,1.2,3.6c0.1,1.4-0.2,2.8-0.8,4.4
		l-3.4,8.8c-1,2.4-2.6,4.7-4.9,6.9c-1.2,1.2-2.4,2.1-3.7,2.8c-1.3,0.7-2.6,1.2-3.9,1.6c-1.4,0.4-2.8,0.6-4.2,0.7
		c-1.4,0.1-2.9,0.2-4.5,0.2H22l-5.1,12.3H3.6l17.8-44.5H41.6z M34.7-152.9c0.3-0.7,0.3-1.4,0-1.9c-0.3-0.5-0.8-0.8-1.5-0.8h-2.4
		l-4.4,10.6h2.4c0.7,0,1.4-0.3,2.1-0.8c0.7-0.5,1.2-1.1,1.5-1.9L34.7-152.9z"/>
	<path class="st0" d="M93-165.8l-18.1,44.5H62l6.3-15.5h-8.9l-6.3,15.5H40.2l18.1-44.5h12.9l-6.8,16.7h8.9l6.8-16.7H93z"/>
	<path class="st0" d="M92-121.4H79l18.1-44.5h12.9L92-121.4z"/>
	<path class="st0" d="M125.8-131.7l-4.2,10.3H95.4l18.1-44.5h12.9l-13.9,34.2H125.8z"/>
	<path class="st0" d="M138.2-121.4h-12.9l18.1-44.5h12.9L138.2-121.4z"/>
	<path class="st0" d="M179.3-165.8c1.7,0,3.2,0.3,4.4,0.9c1.2,0.6,2.2,1.4,2.9,2.4c0.7,1,1.1,2.2,1.2,3.6c0.1,1.4-0.2,2.8-0.8,4.4
		l-3.4,8.8c-1,2.4-2.6,4.7-4.9,6.9c-1.2,1.2-2.4,2.1-3.7,2.8c-1.2,0.7-2.6,1.2-3.9,1.6c-1.4,0.4-2.8,0.6-4.2,0.7
		c-1.4,0.1-2.9,0.2-4.5,0.2h-2.6l-5.1,12.3h-13.3l17.8-44.5H179.3z M172.4-152.9c0.3-0.7,0.3-1.4,0-1.9c-0.3-0.5-0.8-0.8-1.5-0.8
		h-2.4l-4.4,10.6h2.4c0.7,0,1.4-0.3,2.1-0.8c0.7-0.5,1.2-1.1,1.5-1.9L172.4-152.9z"/>
</g>
</svg>
